HIERARCHY
ROOT Hips
{
	OFFSET 0.00 0.00 0.00
	CHANNELS 6 Xposition Yposition Zposition Zrotation Xrotation Yrotation
	JOINT Spine
	{
		OFFSET 0.00 10.00 0.00
		CHANNELS 3 Zrotation Xrotation Yrotation
		JOINT Chest
		{
			OFFSET 0.00 10.00 0.00
			CHANNELS 3 Zrotation Xrotation Yrotation
			JOINT Neck
			{
				OFFSET 0.00 10.00 0.00
				CHANNELS 3 Zrotation Xrotation Yrotation
				JOINT Head
				{
					OFFSET 0.00 5.00 0.00
					CHANNELS 3 Zrotation Xrotation Yrotation
					End Site
					{
						OFFSET 0.00 2.00 0.00
					}
				}
			}
			JOINT LeftShoulder
			{
				OFFSET 0.00 10.00 0.00
				CHANNELS 3 Zrotation Xrotation Yrotation
				JOINT LeftArm
				{
					OFFSET 0.00 10.00 0.00
					CHANNELS 3 Zrotation Xrotation Yrotation
					JOINT LeftForeArm
					{
						OFFSET 0.00 10.00 0.00
						CHANNELS 3 Zrotation Xrotation Yrotation
						JOINT LeftHand
						{
							OFFSET 0.00 5.00 0.00
							CHANNELS 3 Zrotation Xrotation Yrotation
							End Site
							{
								OFFSET 0.00 2.00 0.00
							}
						}
					}
				}
			}
			JOINT RightShoulder
			{
				OFFSET 0.00 10.00 0.00
				CHANNELS 3 Zrotation Xrotation Yrotation
				JOINT RightArm
				{
					OFFSET 0.00 10.00 0.00
					CHANNELS 3 Zrotation Xrotation Yrotation
					JOINT RightForeArm
					{
						OFFSET 0.00 10.00 0.00
						CHANNELS 3 Zrotation Xrotation Yrotation
						JOINT RightHand
						{
							OFFSET 0.00 5.00 0.00
							CHANNELS 3 Zrotation Xrotation Yrotation
							End Site
							{
								OFFSET 0.00 2.00 0.00
							}
						}
					}
				}
			}
		}
	}
	JOINT LeftUpLeg
	{
		OFFSET 0.00 10.00 0.00
		CHANNELS 3 Zrotation Xrotation Yrotation
		JOINT LeftLeg
		{
			OFFSET 0.00 10.00 0.00
			CHANNELS 3 Zrotation Xrotation Yrotation
			JOINT LeftFoot
			{
				OFFSET 0.00 10.00 0.00
				CHANNELS 3 Zrotation Xrotation Yrotation
				JOINT LeftToe
				{
					OFFSET 0.00 5.00 0.00
					CHANNELS 3 Zrotation Xrotation Yrotation
					End Site
					{
						OFFSET 0.00 2.00 0.00
					}
				}
			}
		}
	}
	JOINT RightUpLeg
	{
		OFFSET 0.00 10.00 0.00
		CHANNELS 3 Zrotation Xrotation Yrotation
		JOINT RightLeg
		{
			OFFSET 0.00 10.00 0.00
			CHANNELS 3 Zrotation Xrotation Yrotation
			JOINT RightFoot
			{
				OFFSET 0.00 10.00 0.00
				CHANNELS 3 Zrotation Xrotation Yrotation
				JOINT RightToe
				{
					OFFSET 0.00 5.00 0.00
					CHANNELS 3 Zrotation Xrotation Yrotation
					End Site
					{
						OFFSET 0.00 2.00 0.00
					}
				}
			}
		}
	}
}
MOTION
Frames: 18
Frame Time: 0.03333333333333333
0.079844 -0.144448 0.148902 0.000000 -89.303870 0.903201 0.000000 0.000000 0.000000 0.000000 -132.495456 -10.544821 0.000000 0.000000 0.000000 0.000000 113.200784 -26.089830 0.000000 -169.234610 -11.567922 0.000000 -131.866341 21.625841 0.000000 0.000000 0.000000 0.000000 120.616703 -13.505351 0.000000 -139.606055 -36.705127 0.000000 -148.729077 -40.181826 0.000000 0.000000 0.000000 0.000000 92.872717 -6.509123 0.000000 52.106295 -6.017002 0.000000 94.156738 -1.860623 0.000000 0.000000 0.000000 0.000000 83.517263 -4.006943 0.000000 49.584873 0.258176 0.000000 137.586839 33.754415 0.000000 0.000000 0.000000 0.000000 0.000000 0.000000
0.080577 -0.140381 0.156261 0.000000 -88.853781 0.875246 0.000000 0.000000 0.000000 0.000000 -132.694511 -10.233342 0.000000 0.000000 0.000000 0.000000 118.082766 -32.053409 0.000000 173.689811 -2.296527 0.000000 -172.105644 47.010683 0.000000 0.000000 0.000000 0.000000 119.318112 -14.009022 0.000000 -136.525257 -38.051180 0.000000 -147.417295 -40.908742 0.000000 0.000000 0.000000 0.000000 99.148567 -9.560079 0.000000 54.610007 -3.538764 0.000000 93.475808 1.113339 0.000000 0.000000 0.000000 0.000000 84.872946 -4.026496 0.000000 50.559402 0.255619 0.000000 134.115560 32.221505 0.000000 0.000000 0.000000 0.000000 0.000000 0.000000
0.080667 -0.138769 0.157644 0.000000 -90.440116 1.163693 0.000000 0.000000 0.000000 0.000000 -134.208767 -9.179386 0.000000 0.000000 0.000000 0.000000 120.749575 -29.061856 0.000000 177.588743 -3.497737 0.000000 -167.036926 35.850933 0.000000 0.000000 0.000000 0.000000 120.291975 -13.898316 0.000000 -139.021326 -35.926044 0.000000 -147.904398 -39.342833 0.000000 0.000000 0.000000 0.000000 99.585396 -12.713951 0.000000 53.131502 -1.101419 0.000000 91.399791 2.862929 0.000000 0.000000 0.000000 0.000000 84.814245 -3.871865 0.000000 49.985621 0.198811 0.000000 129.925339 31.761940 0.000000 0.000000 0.000000 0.000000 0.000000 0.000000
0.081868 -0.134339 0.160220 0.000000 -90.359916 1.678088 0.000000 0.000000 0.000000 0.000000 -132.908725 -9.955246 0.000000 0.000000 0.000000 0.000000 118.724551 -29.893874 0.000000 173.909136 0.037173 0.000000 -179.481241 40.150040 0.000000 0.000000 0.000000 0.000000 118.850211 -13.021140 0.000000 -136.321212 -36.544190 0.000000 -146.633145 -39.812583 0.000000 0.000000 0.000000 0.000000 100.048454 -13.571067 0.000000 53.301568 -1.973904 0.000000 91.874997 4.849813 0.000000 0.000000 0.000000 0.000000 85.341589 -3.600526 0.000000 49.543225 0.551103 0.000000 129.081239 31.691857 0.000000 0.000000 0.000000 0.000000 0.000000 0.000000
0.083851 -0.130137 0.161113 0.000000 -90.211325 2.064947 0.000000 0.000000 0.000000 0.000000 -132.265389 -10.447773 0.000000 0.000000 0.000000 0.000000 118.260417 -29.928483 0.000000 174.091692 -0.856008 0.000000 -177.556644 37.737376 0.000000 0.000000 0.000000 0.000000 118.672076 -10.404089 0.000000 -136.608839 -36.896206 0.000000 -146.372273 -40.522827 0.000000 0.000000 0.000000 0.000000 99.765120 -15.016381 0.000000 54.093743 -3.709067 0.000000 94.741453 -2.931815 0.000000 0.000000 0.000000 0.000000 86.437996 -3.054167 0.000000 49.394489 0.850197 0.000000 131.062561 32.380429 0.000000 0.000000 0.000000 0.000000 0.000000 0.000000
0.084076 -0.129763 0.161467 0.000000 -90.437787 2.175960 0.000000 0.000000 0.000000 0.000000 -132.829843 -10.168628 0.000000 0.000000 0.000000 0.000000 116.026147 -30.108411 0.000000 176.026565 2.413764 0.000000 -176.659245 49.886870 0.000000 0.000000 0.000000 0.000000 118.400783 -7.043807 0.000000 -138.654306 -38.348703 0.000000 -146.848794 -41.633026 0.000000 0.000000 0.000000 0.000000 99.287234 -14.959862 0.000000 54.050377 -6.322314 0.000000 93.680168 -8.085652 0.000000 0.000000 0.000000 0.000000 85.923022 -2.647408 0.000000 49.459933 2.167290 0.000000 132.467946 32.986366 0.000000 0.000000 0.000000 0.000000 0.000000 0.000000
0.085083 -0.127346 0.165046 0.000000 -90.623723 2.456176 0.000000 0.000000 0.000000 0.000000 -132.787997 -9.576700 0.000000 0.000000 0.000000 0.000000 118.788712 -33.301286 0.000000 165.426001 1.860852 0.000000 151.982713 37.599621 0.000000 0.000000 0.000000 0.000000 118.523374 -3.423302 0.000000 -142.822508 -38.174075 0.000000 -151.808118 -43.588371 0.000000 0.000000 0.000000 0.000000 98.972913 -14.409786 0.000000 56.257989 -9.696355 0.000000 104.489345 -9.137850 0.000000 0.000000 0.000000 0.000000 79.952872 -1.624474 0.000000 50.594962 4.306236 0.000000 135.207657 31.250305 0.000000 0.000000 0.000000 0.000000 0.000000 0.000000
0.085995 -0.126842 0.167569 0.000000 -90.542669 2.428640 0.000000 0.000000 0.000000 0.000000 -133.821635 -9.435144 0.000000 0.000000 0.000000 0.000000 117.734684 -34.021796 0.000000 162.949879 -11.546549 0.000000 169.492355 20.675236 0.000000 0.000000 0.000000 0.000000 118.001979 -1.612654 0.000000 -148.711459 -38.226072 0.000000 -155.170992 -43.262068 0.000000 0.000000 0.000000 0.000000 97.330552 -14.920248 0.000000 57.893468 -12.925108 0.000000 99.613938 -13.366996 0.000000 0.000000 0.000000 0.000000 80.594277 -0.077783 0.000000 50.754116 3.644882 0.000000 135.743818 31.891157 0.000000 0.000000 0.000000 0.000000 0.000000 0.000000
0.086670 -0.125936 0.169230 0.000000 -89.662150 2.218914 0.000000 0.000000 0.000000 0.000000 -134.872073 -8.872313 0.000000 0.000000 0.000000 0.000000 118.074350 -36.122794 0.000000 162.926813 -16.205821 0.000000 178.625123 11.440140 0.000000 0.000000 0.000000 0.000000 114.724884 2.857520 0.000000 -161.368722 -36.072956 0.000000 -161.737404 -44.191825 0.000000 0.000000 0.000000 0.000000 97.031409 -15.003992 0.000000 59.396959 -14.814975 0.000000 109.743338 -15.396928 0.000000 0.000000 0.000000 0.000000 79.754147 0.460064 0.000000 50.643903 3.914273 0.000000 136.745784 30.085479 0.000000 0.000000 0.000000 0.000000 0.000000 0.000000
0.087368 -0.124288 0.169571 0.000000 -89.603804 2.076232 0.000000 0.000000 0.000000 0.000000 -134.876194 -8.769684 0.000000 0.000000 0.000000 0.000000 119.286686 -37.772356 0.000000 164.379143 -13.364734 0.000000 -178.990253 12.808700 0.000000 0.000000 0.000000 0.000000 115.580234 1.619120 0.000000 -159.609861 -36.330701 0.000000 -161.365824 -43.672670 0.000000 0.000000 0.000000 0.000000 96.897130 -15.010522 0.000000 61.171944 -14.432993 0.000000 113.089208 -17.198459 0.000000 0.000000 0.000000 0.000000 79.126789 0.713546 0.000000 49.951884 3.645456 0.000000 136.265260 29.574036 0.000000 0.000000 0.000000 0.000000 0.000000 0.000000
0.088621 -0.123859 0.169546 0.000000 -89.629286 2.055324 0.000000 0.000000 0.000000 0.000000 -134.942180 -8.768872 0.000000 0.000000 0.000000 0.000000 119.043409 -36.960389 0.000000 165.025506 -14.011486 0.000000 -177.172112 12.985641 0.000000 0.000000 0.000000 0.000000 115.718869 1.081417 0.000000 -157.692531 -36.321814 0.000000 -159.014323 -43.169389 0.000000 0.000000 0.000000 0.000000 96.543986 -15.053564 0.000000 60.850840 -14.295328 0.000000 112.466727 -15.100104 0.000000 0.000000 0.000000 0.000000 78.885686 0.843722 0.000000 50.178384 3.675161 0.000000 137.215481 28.944204 0.000000 0.000000 0.000000 0.000000 0.000000 0.000000
0.087484 -0.119925 0.185927 0.000000 -91.117785 1.196567 0.000000 0.000000 0.000000 0.000000 -140.209006 -7.743890 0.000000 0.000000 0.000000 0.000000 126.620248 -75.222809 0.000000 -168.214111 -73.740379 0.000000 -115.711797 -55.585031 0.000000 0.000000 0.000000 0.000000 117.000530 4.650205 0.000000 -170.159529 -27.748201 0.000000 -164.262319 -39.996686 0.000000 0.000000 0.000000 0.000000 96.178827 -14.759015 0.000000 60.321906 -14.216864 0.000000 112.130472 -10.714336 0.000000 0.000000 0.000000 0.000000 78.907113 2.698785 0.000000 50.790640 6.349047 0.000000 137.952637 32.497240 0.000000 0.000000 0.000000 0.000000 0.000000 0.000000
0.086929 -0.111937 0.192465 0.000000 -90.720755 0.335014 0.000000 0.000000 0.000000 0.000000 -140.988255 -7.126671 0.000000 0.000000 0.000000 0.000000 117.087064 -84.224385 0.000000 -157.084373 -72.102213 0.000000 -115.783048 -51.218406 0.000000 0.000000 0.000000 0.000000 116.955340 5.154161 0.000000 -167.529778 -29.505059 0.000000 -160.522684 -41.272004 0.000000 0.000000 0.000000 0.000000 95.986257 -13.728441 0.000000 59.669505 -12.624910 0.000000 114.632594 -16.234186 0.000000 0.000000 0.000000 0.000000 78.398071 3.502629 0.000000 49.889297 8.609588 0.000000 141.087103 34.719856 0.000000 0.000000 0.000000 0.000000 0.000000 0.000000
0.086513 -0.104101 0.196583 0.000000 -90.736236 0.418317 0.000000 0.000000 0.000000 0.000000 -141.622223 -7.364260 0.000000 0.000000 0.000000 0.000000 93.594784 -78.105889 0.000000 -160.796202 -61.442412 0.000000 -121.392478 -43.613719 0.000000 0.000000 0.000000 0.000000 116.462040 5.062552 0.000000 -165.270362 -29.413973 0.000000 -157.118021 -41.998170 0.000000 0.000000 0.000000 0.000000 93.788805 -12.882542 0.000000 54.921590 -9.251679 0.000000 108.403499 -20.648449 0.000000 0.000000 0.000000 0.000000 77.694702 5.354684 0.000000 47.760416 10.128972 0.000000 141.629937 33.878945 0.000000 0.000000 0.000000 0.000000 0.000000 0.000000
0.088751 -0.098158 0.196603 0.000000 -90.902112 0.515043 0.000000 0.000000 0.000000 0.000000 -141.948698 -8.014434 0.000000 0.000000 0.000000 0.000000 97.770759 -70.056437 0.000000 -166.567685 -52.030808 0.000000 -136.506171 -31.020112 0.000000 0.000000 0.000000 0.000000 116.504902 4.321206 0.000000 -163.121530 -29.152766 0.000000 -157.771643 -41.351483 0.000000 0.000000 0.000000 0.000000 93.889899 -12.324989 0.000000 54.588560 -5.740689 0.000000 104.895162 -16.803241 0.000000 0.000000 0.000000 0.000000 76.923609 7.297970 0.000000 46.686785 10.937725 0.000000 139.123536 39.866600 0.000000 0.000000 0.000000 0.000000 0.000000 0.000000
0.089351 -0.099382 0.197695 0.000000 -91.465784 0.673233 0.000000 0.000000 0.000000 0.000000 -141.222054 -10.256456 0.000000 0.000000 0.000000 0.000000 100.605901 -62.263035 0.000000 -169.004993 -28.444776 0.000000 -140.093556 3.457965 0.000000 0.000000 0.000000 0.000000 116.847274 4.103336 0.000000 -156.992774 -31.403046 0.000000 -150.239160 -40.148684 0.000000 0.000000 0.000000 0.000000 92.899366 -11.934736 0.000000 53.212789 -3.861816 0.000000 99.768110 -17.014446 0.000000 0.000000 0.000000 0.000000 77.016566 9.627472 0.000000 46.672949 10.510956 0.000000 138.690453 37.976742 0.000000 0.000000 0.000000 0.000000 0.000000 0.000000
0.089863 -0.099239 0.187656 0.000000 -90.233621 1.010905 0.000000 0.000000 0.000000 0.000000 -140.783534 -13.269694 0.000000 0.000000 0.000000 0.000000 93.184916 -37.046661 0.000000 -179.132768 -36.160996 0.000000 -126.937288 -4.477765 0.000000 0.000000 0.000000 0.000000 111.736385 4.068912 0.000000 -136.976922 -45.653119 0.000000 -140.443962 -45.152340 0.000000 0.000000 0.000000 0.000000 93.276097 -11.520041 0.000000 54.404768 -2.866072 0.000000 96.850624 -12.407472 0.000000 0.000000 0.000000 0.000000 83.014488 10.477409 0.000000 48.405137 11.285435 0.000000 137.705927 40.040943 0.000000 0.000000 0.000000 0.000000 0.000000 0.000000
0.087263 -0.113314 0.161798 0.000000 -92.755909 -0.096670 0.000000 0.000000 0.000000 0.000000 -139.459463 -16.339613 0.000000 0.000000 0.000000 0.000000 99.210709 -23.652110 0.000000 -176.212409 -9.995760 0.000000 -111.278412 34.795776 0.000000 0.000000 0.000000 0.000000 110.913033 1.101180 0.000000 -134.400045 -46.855550 0.000000 -141.091048 -44.596362 0.000000 0.000000 0.000000 0.000000 93.671363 -11.567649 0.000000 56.183889 -3.717445 0.000000 98.874668 -9.284248 0.000000 0.000000 0.000000 0.000000 82.918581 11.212802 0.000000 46.431684 12.592084 0.000000 140.410515 35.535214 0.000000 0.000000 0.000000 0.000000 0.000000 0.000000
